<?xml version="1.0" encoding="UTF-8"?>
<svg id="Layer_1" xmlns="http://www.w3.org/2000/svg" version="1.1" viewBox="0 0 451.8 242.8">
  <!-- Generator: Adobe Illustrator 30.2.1, SVG Export Plug-In . SVG Version: 2.1.1 Build 1)  -->
  <defs>
    <style>
      .st0 {
        fill: #0a71ff;
      }

      .st1 {
        fill: #fff;
      }

      .st2 {
        fill: #ea232b;
      }

      .st3 {
        opacity: .5;
      }
    </style>
  </defs>
  <path class="st2" d="M244.2,121.2c0-5.9,0-11.6-.9-16.7h-105.8v50.9h31.4c0,5.1-14.5,15.5-36.3,15.5s-51.1-18.8-51.6-49.1c-.6-31.4,26.6-51.9,51.6-51,20.3.7,28.1,6.6,39.4,17.7,0,0,65.9,0,67.7,0-2-7.6-6.8-19-15.2-30.8-.7-1-1.4-2-2.2-3-16.7-22.2-45.6-44.7-90.6-44.7-52.9,0-93.6,35.3-107.1,78.5-.2.5-.3,1-.5,1.6,0,0,0,0,0,0-2.8,9.7-4.3,19.9-4.3,30.4.1,10.1,1.4,19.8,3.8,28.9,8.5,31.6,30.6,57.6,59.7,71.6.2.1.5.2.7.3.2,0,.3.1.4.2,14.7,6.7,31.2,10.4,48.7,10.5,37.1-.3,70-18.5,90.2-46.3.4-.6,20.8-30,20.8-64.7h0Z"/>
  <path class="st0" d="M411.4,185.4s20.6-26.3,20.7-61.4c.2-68.8-48.1-113.3-115.3-113.4-39,0-74.9,20.7-93.3,45.5-16.4,22.1-19.1,40.6-19.1,54-.8,16.7.9,24.6.9,24.6,2.4,17.4,9.1,34.5,19.5,49.4h0c19.6,28.2,52.1,48.7,92.4,48.7,26.7,0,45.7-12.6,49.1-14.4l7.1,8.2h68.5l-30.4-41.2h0ZM369.7,137.1l-5.8-7.2h-69.5l28.3,40.1c-29.4,5.8-57.2-19.2-56.8-47.8.4-29.2,24-51,52.2-50.8,31,.2,61.9,33.8,51.6,65.7Z"/>
  <g class="st3">
    <path class="st1" d="M239.8,88.5c-2-7.6-6.8-19-15.2-30.8-.3-.5-.7-1-1.1-1.5,0,0,0,0,0,.1-8.8,11.9-13.6,22.7-16.2,32.2,16.1,0,31.7,0,32.6,0h0Z"/>
    <path class="st1" d="M244.2,121.2c0-5.9,0-11.6-.9-16.7h-38.8c-.1,0-.2,3.9-.2,5.8-.8,16.7.9,24.5.9,24.5,2.4,17.4,9.1,34.4,19.4,49.3,4.4-6.9,19.6-33,19.6-62.9h0Z"/>
  </g>
</svg>