<?xml version="1.0" encoding="UTF-8"?> <svg xmlns="http://www.w3.org/2000/svg" xmlns:xlink="http://www.w3.org/1999/xlink" id="uuid-5e73e60e-146e-4b53-b484-eb832f96ec8c" data-name="Layer 1" viewBox="0 0 136 81.02"><defs><style> .uuid-7b330bf5-6e30-4001-9751-5ed29fccc840 { fill: url(#uuid-703b9670-2734-437a-8d75-1cfadf8ae6d2); } .uuid-7b330bf5-6e30-4001-9751-5ed29fccc840, .uuid-c55a95ce-5262-4653-8a0d-0667d2623b25, .uuid-80445dad-a936-4c51-a9f1-c1fcf0d7d26e, .uuid-5f6da3be-7e1d-4fc6-a1e0-8ac32be3bebf, .uuid-d69a19d9-dffd-4c16-b0cb-704c38a2b9e0, .uuid-47a5ad15-6d7f-407e-a440-666a172d9ad7, .uuid-f8637a45-3a6d-4200-9985-703f08ecc42a { stroke-width: 0px; } .uuid-c55a95ce-5262-4653-8a0d-0667d2623b25 { fill: url(#uuid-6418197f-a7bd-49ca-998e-737c8cfa1946); } .uuid-80445dad-a936-4c51-a9f1-c1fcf0d7d26e { fill: #000; } .uuid-5f6da3be-7e1d-4fc6-a1e0-8ac32be3bebf { fill: url(#uuid-1f8fcddd-c9f5-4029-9a5a-61796348b7c0); } .uuid-d69a19d9-dffd-4c16-b0cb-704c38a2b9e0 { fill: url(#uuid-95184a96-5ba3-4ff3-bd2a-63dd46db765d); } .uuid-47a5ad15-6d7f-407e-a440-666a172d9ad7 { fill: url(#uuid-d87f377a-8c0f-4c72-8ea4-da7cb9af1e7e); } .uuid-f8637a45-3a6d-4200-9985-703f08ecc42a { fill: #fff; } </style><linearGradient id="uuid-703b9670-2734-437a-8d75-1cfadf8ae6d2" x1="-3.77" y1="38.1" x2="175.29" y2="44.12" gradientUnits="userSpaceOnUse"><stop offset="0" stop-color="#000"></stop><stop offset="1" stop-color="#726f6f"></stop></linearGradient><linearGradient id="uuid-6418197f-a7bd-49ca-998e-737c8cfa1946" data-name="Градієнт без назви 9" x1="10.47" y1="49.44" x2="41.26" y2="54.32" gradientUnits="userSpaceOnUse"><stop offset=".24" stop-color="#423e3e"></stop><stop offset=".42" stop-color="#3d3939"></stop><stop offset=".61" stop-color="#302d2d"></stop><stop offset=".82" stop-color="#191818"></stop><stop offset="1" stop-color="#000"></stop></linearGradient><linearGradient id="uuid-d87f377a-8c0f-4c72-8ea4-da7cb9af1e7e" data-name="Градієнт без назви 8" x1="94.97" y1="34.6" x2="141.14" y2="37.61" gradientUnits="userSpaceOnUse"><stop offset=".24" stop-color="#423e3e"></stop><stop offset=".55" stop-color="#201e1e"></stop><stop offset=".83" stop-color="#080808"></stop><stop offset="1" stop-color="#000"></stop></linearGradient><linearGradient id="uuid-95184a96-5ba3-4ff3-bd2a-63dd46db765d" data-name="Градієнт без назви 8" x1="63.47" y1="40.54" x2="98.4" y2="40.54" xlink:href="#uuid-d87f377a-8c0f-4c72-8ea4-da7cb9af1e7e"></linearGradient><linearGradient id="uuid-1f8fcddd-c9f5-4029-9a5a-61796348b7c0" data-name="Градієнт без назви 8" x1="38.22" y1="44.01" x2="73.33" y2="49.62" xlink:href="#uuid-d87f377a-8c0f-4c72-8ea4-da7cb9af1e7e"></linearGradient></defs><polygon class="uuid-7b330bf5-6e30-4001-9751-5ed29fccc840" points="136 3.41 136 72 3.95 81.02 0 78.72 .08 31.48 131.94 0 136 3.41"></polygon><polygon class="uuid-80445dad-a936-4c51-a9f1-c1fcf0d7d26e" points="0 31.41 131.94 0 131.94 66.53 0 78.72 0 31.41 0 31.41"></polygon><path class="uuid-c55a95ce-5262-4653-8a0d-0667d2623b25" d="M27.99,32.01l-16.2,3.41.24,34.62h.05s0,.01,0,.01h.05s0,.01,0,.01h.05s0,.01,0,.01h.05s0,.01,0,.01h.05s0,.01,0,.01h.05s0,.01,0,.01h.05s0,.01,0,.01h.05s0,.01,0,.01h.05s0,.01,0,.01h.05s0,.01,0,.01h.05s0,.01,0,.01h.05s0,.01,0,.01h.05s0,.01,0,.01h.05s0,.01,0,.01h.05s0,.01,0,.01h.05s0,.01,0,.01h.05s0,.01,0,.01h.05s0,.01,0,.01h.05s0,.01,0,.01h.05s0,.01,0,.01h.05s0,.01,0,.01h.05s0,.01,0,.01h.05s0,.01,0,.01h.05s0,.01,0,.01h.05s0,.01,0,.01h.05s0,.01,0,.01h.05s0,.01,0,.01h.05s0,.01,0,.01h.05s0,.01,0,.01h.05s0,.01,0,.01h.05s0,.01,0,.01h.05s0,.01,0,.01h.05s0,.01,0,.01h.05s0,.01,0,.01h.05s0,.01,0,.01h.05s0,.01,0,.01h.05s0,.01,0,.01h.05s0,.01,0,.01h.05s0,.01,0,.01h.05s0,.01,0,.01h.05s0,.01,0,.01h.05s0,.01,0,.01h.05s0,.01,0,.01h.05s0,.01,0,.01h.05s0,.01,0,.01h.05s0,.01,0,.01h.05s0,.01,0,.01h.05s0,.01,0,.01h.05s0,.01,0,.01h.05s0,.01,0,.01l7.8-.77v-12.03s.68-.08,1.43-.2l4.44,10.39,2.34.74,8.86-.77-6.34-12.47s6.34-1.95,6.34-13.04c0-6.38-2.69-8.68-4.92-9.61-4.41-1.83-6.28-.99-6.28-.99ZM21.84,41.67l5.46-1.24s0,0,.01,0c.39.43.64.99.64,1.63v4.51c0,1.19-.86,2.19-2.03,2.38l-4.09.65v-7.93Z"></path><path class="uuid-f8637a45-3a6d-4200-9985-703f08ecc42a" d="M27.91,46.56c0,1.19-.86,2.19-2.03,2.38l-6.38,1.02v-9.02l5.46-1.24c1.51-.34,2.95.81,2.95,2.35v4.51ZM36.85,41.87c0-6.38-2.66-8.75-4.92-9.61-1.27-.48-2.66-.55-3.99-.27l-16.2,3.41.24,34.62,7.8-.77v-12.03s2.8-.32,3.21-.65l5,11.58,8.86-.77-6.34-12.47s6.34-1.95,6.34-13.04Z"></path><path class="uuid-47a5ad15-6d7f-407e-a440-666a172d9ad7" d="M111.42,61.01l10.08-.81-.31-8.43,3.76-.39v-8.7l-2-2.05-1.66.24V12.9l-2-2.05-16.09,3.7-10.89,30.76-.04,8.29,2,2.05,15.19-1.8-.04,5.11,2,2.05ZM109.73,42.85l-5.5.8,5.28-13.51.23,12.72Z"></path><path class="uuid-f8637a45-3a6d-4200-9985-703f08ecc42a" d="M101.28,44.03l8.07-20.66.35,19.45-8.41,1.22ZM122.95,40.64l-3.66.43V10.85l-16.13,3.66-10.89,30.76v8.33l17.15-2.03v7.4l10.08-.81-.31-8.43,3.76-.39v-8.7Z"></path><polygon class="uuid-d69a19d9-dffd-4c16-b0cb-704c38a2b9e0" points="98.4 18.02 86.27 63.62 75.36 64.72 72.81 63.05 63.47 23.28 72.93 20.93 75.48 22.6 80.09 45.99 86.7 18.46 95.85 16.36 98.4 18.02"></polygon><polygon class="uuid-f8637a45-3a6d-4200-9985-703f08ecc42a" points="63.42 23.25 72.81 63.05 83.72 61.95 95.85 16.36 86.65 18.43 78.84 50.93 72.93 20.93 63.42 23.25"></polygon><polygon class="uuid-5f6da3be-7e1d-4fc6-a1e0-8ac32be3bebf" points="63.6 57.5 63.6 66.12 41.9 68.39 39.77 66.69 39.81 28.6 61.06 23.86 63.2 25.56 63.2 34.18 50.28 36.54 50.28 41.9 59.52 40.27 61.65 41.98 61.65 50.03 50.44 51.65 50.44 57.06 61.47 55.8 63.6 57.5"></polygon><polygon class="uuid-f8637a45-3a6d-4200-9985-703f08ecc42a" points="39.77 28.57 39.77 66.69 61.47 64.41 61.47 55.8 48.3 57.26 48.3 49.95 59.52 48.32 59.52 40.27 48.14 42.22 48.14 34.83 61.06 32.47 61.06 23.86 39.77 28.57"></polygon></svg> 