<?xml version="1.0" encoding="UTF-8"?>
<svg id="svg8" xmlns="http://www.w3.org/2000/svg" xmlns:svg="http://www.w3.org/2000/svg" xmlns:sodipodi="http://sodipodi.sourceforge.net/DTD/sodipodi-0.dtd" xmlns:rdf="http://www.w3.org/1999/02/22-rdf-syntax-ns#" xmlns:inkscape="http://www.inkscape.org/namespaces/inkscape" xmlns:dc="http://purl.org/dc/elements/1.1/" xmlns:cc="http://creativecommons.org/ns#" version="1.1" viewBox="0 0 1000 277.3">
  <!-- Generator: Adobe Illustrator 30.2.1, SVG Export Plug-In . SVG Version: 2.1.1 Build 1)  -->
  <defs>
    <style>
      .st0 {
        fill: #7d2eff;
      }
    </style>
  </defs>
  <sodipodi:namedview id="base" bordercolor="#666666" borderopacity="1.0" fit-margin-bottom="0" fit-margin-left="0" fit-margin-right="0" fit-margin-top="0" inkscape:current-layer="svg8" inkscape:cx="297" inkscape:cy="49" inkscape:deskcolor="#d1d1d1" inkscape:document-units="px" inkscape:pagecheckerboard="0" inkscape:pageopacity="0.0" inkscape:pageshadow="2" inkscape:showpageshadow="2" inkscape:window-height="705" inkscape:window-maximized="1" inkscape:window-width="1366" inkscape:window-x="-8" inkscape:window-y="-8" inkscape:zoom="0.5" pagecolor="#ffffff" showgrid="false" units="px"/>
  <path id="path1" class="st0" d="M358.7,0v220.4h54.3v-83.4c0-11.7,6.8-23.4,19.9-23.4s18.5,11.5,18.5,23.4v83.4h53.9v-96.6c0-35.2-19.3-59.8-52.4-59.8s-39.9,17.9-39.9,17.9V0h-54.3ZM935.4,0l-57.6,138.3h64.9L1000,0h-64.6ZM247.5,64c-44.7,0-73,40.1-73,80s31,80.5,72.1,80.5,42.2-18.7,42.2-18.7v14.6h51.9V67.5h-51.9v13.9s-12.9-17.4-41.4-17.4h0ZM597.7,64c-51.2,0-81.7,38.9-81.7,80.6s36.9,79.9,81.9,79.9,81.7-31,81.7-79.1-39.9-81.4-81.9-81.4ZM770.1,64c-51.2,0-81.7,38.9-81.7,80.6s36.9,79.9,81.9,79.9,81.7-31,81.7-79.1-39.9-81.4-81.9-81.4ZM0,67.5l65.5,154.2-23.9,55.6h58.3l87.2-209.8h-57.9l-35.1,88.6-34.6-88.6H0ZM258.5,113.1c20.6,0,31.3,16.3,31.3,31s-11.4,31.4-31.3,31.4-31.3-13.5-31.3-30.7,12-31.7,31.3-31.7ZM598.2,113.6c18.1,0,30.6,15.1,30.6,31.1s-11.7,30.6-30.6,30.6-30.4-13.9-30.4-30.7,10.8-31,30.4-31ZM770.5,113.6c18.1,0,30.6,15.1,30.6,31.1s-11.7,30.6-30.6,30.6-30.4-13.9-30.4-30.7,10.8-31,30.4-31ZM894.8,151.6c-19.9,0-36,16.1-36,36s16.1,36,36,36,36-16.1,36-36-16.1-36-36-36Z"/>
</svg>